<svg xmlns="http://www.w3.org/2000/svg" viewBox="0 0 562.03 588.53"><defs><style>.cls-1{fill:#06176d;}.cls-2{fill:#f97e19;}</style></defs><g id="Layer_2" data-name="Layer 2"><g id="Layer_1-2" data-name="Layer 1"><path class="cls-1" d="M561.85,484.55l-53,22.72c-102.41-20.58-274.31-57.39-385.49-90.92a195.4,195.4,0,0,1-93.8-61.46C-26.19,287,7.74,196.83,46.06,159c83.87-83.9,302.69-72.81,368.6,19.85,17.93,25.21,21.33,57.92,10.09,86.74-32,82.09-152.14,100.23-209.29,57.94-13.58-10.06-23.28-24.71-26-41.39-7.78-47.61,45.58-79.68,105.12-62.62-74.45-10.63-85.54,97,5.42,96.32,1.67,0,3.39-.06,5.14-.15h.13c20.7-.41,39.61-6.82,42.17-7.73l.3-.1c4.14-1.69,54.57-23,59.53-66.4,2.76-24.24-10-43.42-14.81-50.4,0,0-56.07-76.64-202.6-46.87l-3.4.7-.34.07h0c-38.22,6.9-72.75,23.37-94.89,52.55C69.66,225.94,54.4,273.58,70.56,316.76c22.48,60,95,82.87,275.68,123.67C419.31,456.94,473.62,468.2,561.85,484.55Z"/><path class="cls-2" d="M516.15,348.34c-83.87,83.9-302.69,72.81-368.6-19.85-17.93-25.21-21.33-57.92-10.09-86.74,32-82.09,152.14-100.23,209.29-57.94,13.58,10.06,23.28,24.71,26,41.39,7.78,47.61-45.58,79.68-105.12,62.62,74.45,10.63,85.54-97-5.42-96.32-1.67,0-3.39.06-5.14.15h-.13c-20.7.41-39.61,6.82-42.17,7.73l-.3.1c-4.14,1.69-54.57,23-59.53,66.4-2.77,24.24,10,43.42,14.81,50.4,0,0,56.07,76.64,202.6,46.87l3.4-.7.34-.07h0c38.22-6.9,72.75-23.37,94.89-52.55,21.57-28.43,36.83-76.07,20.67-119.25-22.48-60-95-82.87-275.68-123.67C142.8,50.38,88.45,39.11,0,22.72L53,0C155.37,20.56,327.53,57.42,438.84,91a195.4,195.4,0,0,1,93.8,61.46C588.4,220.31,554.47,310.51,516.15,348.34Z"/><path class="cls-1" d="M240.26,527.93H227.44l-18.36,60h9.43l5.85-19.14h19L249.24,588h9.39Zm-12.56,30,6.17-20.17L240,557.93Z"/><polygon class="cls-1" points="49.96 527.77 0.17 527.77 0.17 588.12 49.96 588.12 49.96 579.04 9.27 579.04 9.27 562.45 25.07 562.45 35.76 553.4 9.27 553.4 9.27 536.8 49.96 536.8 49.96 527.77"/><rect class="cls-1" x="410.65" y="527.93" width="9.06" height="60.33"/><path class="cls-1" d="M170.46,527.87a25.46,25.46,0,0,0-3.52-.28H142.05v60.33h9.09V575.14l0,0v-13h0v0h15.8a27.11,27.11,0,0,0,3.52-.28c9.88-1.45,17.36-8.49,17.36-17S180.34,529.31,170.46,527.87ZM166.7,553H151.1V540.38l0,0v-3.66H166.7c6.4,0,12,3.81,12,8.17S173.1,553,166.7,553Z"/><path class="cls-2" d="M389.89,575.46c-1.42,6.81-8.35,10.23-9.81,10.95-11.13,5.51-22.73-1.37-23.82-2,5.34,1.72,13.29,3.51,17.63-.79A12.89,12.89,0,0,0,377,570.81a13.42,13.42,0,0,0-6.64-7.65c-4-2-8.76-2.78-12.22-5.62-17.36-13.82-1.14-35.24,21.43-28.19-19.22-2.58-21.12,21.69-5.34,25.3.34.08.67.15,1,.25C384,557.6,391.89,565.82,389.89,575.46Z"/><path class="cls-1" d="M466.25,527.57c-13.75,0-24.89,13.51-24.89,30.17s11.14,30.18,24.89,30.18,24.88-13.51,24.88-30.18S480,527.57,466.25,527.57Zm0,51.25c-8.57,0-15.8-9.65-15.8-21.08s7.23-21.08,15.8-21.08S482,546.32,482,557.74,474.8,578.82,466.25,578.82Z"/><polygon class="cls-1" points="329.68 527.59 329.68 587.91 320.63 587.91 320.61 587.89 290.35 545.16 289.96 544.61 289 543.25 289 587.91 279.9 587.91 279.9 527.59 289 527.59 298.47 540.97 304.22 549.09 320.61 572.23 320.61 531.48 329.65 527.6 329.63 527.59 329.68 527.59"/><polygon class="cls-1" points="41.79 553.41 4.61 553.41 4.61 562.48 37.57 562.48 41.78 553.44 41.79 553.46 41.79 553.41"/><polygon class="cls-1" points="561.85 527.58 561.85 587.91 552.8 587.91 552.78 587.89 522.52 545.16 522.13 544.6 521.17 543.25 521.17 587.91 512.07 587.91 512.07 527.58 521.17 527.58 530.64 540.96 536.39 549.08 552.78 572.22 552.78 531.47 561.82 527.59 561.8 527.58 561.85 527.58"/><polygon class="cls-1" points="120.9 530.62 115.08 538.85 115.07 538.85 120.9 530.62"/><polygon class="cls-1" points="122.91 588.13 111.8 588.13 107.28 581.75 95.98 565.79 83.68 583.14 80.16 588.13 69.09 588.13 69.07 588.12 71.11 585.24 75.56 578.96 90.44 557.97 76.7 538.57 71.11 530.67 69.16 527.92 71.11 527.92 71.11 527.77 80.13 527.77 80.24 527.92 80.25 527.92 83.93 533.12 83.92 533.13 95.98 550.13 107.61 533.73 111.71 527.92 111.72 527.92 111.82 527.77 120.9 527.77 120.9 527.92 122.81 527.92 120.9 530.62 115.07 538.85 101.53 557.97 118.17 581.46 118.18 581.46 122.91 588.13"/></g></g></svg>